<svg xmlns="http://www.w3.org/2000/svg" viewBox="0 0 320 320" role="img" aria-labelledby="title desc">
  <title id="title">Type 3 The Achiever character</title>
  <desc id="desc">Confident amber performer with trophy star motif.</desc>
  <defs><linearGradient id="g" x1="40" x2="280" y1="20" y2="300" gradientUnits="userSpaceOnUse"><stop stop-color="#fef3c7"/><stop offset="1" stop-color="#f59e0b"/></linearGradient></defs>
  <circle cx="160" cy="160" r="132" fill="url(#g)" opacity=".36"/>
  <path fill="#fff7ed" d="M88 236c16-55 42-84 72-84s56 29 72 84c-42 27-102 27-144 0Z"/>
  <circle cx="160" cy="112" r="45" fill="#f2c7a8"/>
  <path fill="#92400e" d="M112 108c8-38 43-60 80-36 15 10 23 29 18 50-30-20-66-20-98-14Z"/>
  <path fill="#f59e0b" d="m106 229 54-58 54 58-18 48h-72l-18-48Z"/>
  <path fill="#fbbf24" stroke="#92400e" stroke-width="5" d="m250 84 11 26 28 2-22 18 7 28-24-15-24 15 7-28-22-18 28-2 11-26Z"/>
  <path stroke="#92400e" stroke-linecap="round" stroke-width="8" d="M136 128c13 11 34 11 48 0"/>
</svg>
