<svg xmlns="http://www.w3.org/2000/svg" viewBox="0 0 320 320" role="img" aria-labelledby="title desc">
  <title id="title">Type 5 The Investigator character</title>
  <desc id="desc">Teal scholar mage with glasses, books, and constellations.</desc>
  <defs><linearGradient id="g" x1="40" x2="280" y1="20" y2="300" gradientUnits="userSpaceOnUse"><stop stop-color="#ccfbf1"/><stop offset="1" stop-color="#0f766e"/></linearGradient></defs>
  <circle cx="160" cy="160" r="132" fill="url(#g)" opacity=".36"/>
  <path fill="#ecfeff" d="M88 235c14-56 42-86 72-86s58 30 72 86c-40 28-104 28-144 0Z"/>
  <circle cx="160" cy="112" r="44" fill="#efd0bd"/>
  <path fill="#164e63" d="M114 105c9-38 42-58 76-38 18 11 25 31 21 55-28-20-62-21-97-17Z"/>
  <path fill="#0f766e" d="M108 229h104l-18 48h-68l-18-48Z"/>
  <circle cx="143" cy="116" r="13" fill="none" stroke="#134e4a" stroke-width="5"/>
  <circle cx="177" cy="116" r="13" fill="none" stroke="#134e4a" stroke-width="5"/>
  <path stroke="#134e4a" stroke-width="5" d="M156 116h8"/>
  <rect x="218" y="72" width="58" height="76" rx="8" fill="#ecfeff" stroke="#0f766e" stroke-width="6"/>
  <path stroke="#0f766e" stroke-linecap="round" stroke-width="5" d="M232 98h30M232 116h20"/>
  <path stroke="#134e4a" stroke-linecap="round" stroke-width="7" d="M140 132c13 7 28 7 40 0"/>
</svg>
