<svg xmlns="http://www.w3.org/2000/svg" viewBox="0 0 320 320" role="img" aria-labelledby="title desc">
  <title id="title">Type 1 The Reformer character</title>
  <desc id="desc">Anime-inspired sapphire guardian holding a checklist scroll.</desc>
  <defs><linearGradient id="g" x1="40" x2="280" y1="20" y2="300" gradientUnits="userSpaceOnUse"><stop stop-color="#dbeafe"/><stop offset="1" stop-color="#2563eb"/></linearGradient></defs>
  <circle cx="160" cy="160" r="132" fill="url(#g)" opacity=".32"/>
  <path fill="#fff" d="M96 230c10-54 35-82 64-82s54 28 64 82c-34 28-94 28-128 0Z"/>
  <circle cx="160" cy="112" r="46" fill="#f8d8c6"/>
  <path fill="#1e3a8a" d="M112 110c8-42 38-62 74-46 22 10 28 35 22 58-20-16-47-18-96-12Z"/>
  <path fill="#2563eb" d="M108 230h104l-18 44h-68l-18-44Z"/>
  <rect x="205" y="102" width="58" height="90" rx="12" fill="#eff6ff" stroke="#2563eb" stroke-width="6"/>
  <path stroke="#2563eb" stroke-linecap="round" stroke-width="7" d="m218 129 10 10 20-24M220 159h28"/>
  <path fill="none" stroke="#1e40af" stroke-linecap="round" stroke-width="8" d="M138 124c8 8 34 8 44 0"/>
</svg>
