<svg xmlns="http://www.w3.org/2000/svg" viewBox="0 0 320 320" role="img" aria-labelledby="title desc">
  <title id="title">Type 4 The Individualist character</title>
  <desc id="desc">Poetic violet creative character with moon and brush motifs.</desc>
  <defs><linearGradient id="g" x1="44" x2="276" y1="24" y2="296" gradientUnits="userSpaceOnUse"><stop stop-color="#f5d0fe"/><stop offset="1" stop-color="#7c3aed"/></linearGradient></defs>
  <circle cx="160" cy="160" r="132" fill="url(#g)" opacity=".34"/>
  <path fill="#faf5ff" d="M90 236c13-56 39-86 70-86s57 30 70 86c-38 29-102 29-140 0Z"/>
  <circle cx="160" cy="112" r="45" fill="#f0c4bd"/>
  <path fill="#581c87" d="M111 120c-2-42 31-72 70-55 25 11 35 37 24 67-21-22-55-27-94-12Z"/>
  <path fill="#8b5cf6" d="M109 229h102l-19 48h-64l-19-48Z"/>
  <path fill="#ddd6fe" d="M251 74a44 44 0 1 0 34 72 54 54 0 1 1-34-72Z"/>
  <path stroke="#7c3aed" stroke-linecap="round" stroke-width="9" d="m232 190 42 42M267 225l18-18"/>
  <path stroke="#581c87" stroke-linecap="round" stroke-width="8" d="M138 128c12 9 30 9 44 0"/>
</svg>
