<svg xmlns="http://www.w3.org/2000/svg" viewBox="0 0 320 320" role="img" aria-labelledby="title desc">
  <title id="title">Type 7 The Enthusiast character</title>
  <desc id="desc">Orange cheerful adventurer with balloons and sparkles.</desc>
  <defs><linearGradient id="g" x1="42" x2="278" y1="22" y2="298" gradientUnits="userSpaceOnUse"><stop stop-color="#ffedd5"/><stop offset="1" stop-color="#f97316"/></linearGradient></defs>
  <circle cx="160" cy="160" r="132" fill="url(#g)" opacity=".37"/>
  <path fill="#fff7ed" d="M84 235c15-55 44-84 76-84s61 29 76 84c-43 30-109 30-152 0Z"/>
  <circle cx="160" cy="112" r="45" fill="#f1c5a8"/>
  <path fill="#9a3412" d="M112 104c11-39 46-56 80-32 17 12 23 31 16 54-28-22-62-23-96-22Z"/>
  <path fill="#f97316" d="M108 228h104l-18 49h-68l-18-49Z"/>
  <circle cx="244" cy="78" r="20" fill="#fb7185"/>
  <circle cx="278" cy="105" r="19" fill="#38bdf8"/>
  <circle cx="239" cy="128" r="16" fill="#facc15"/>
  <path stroke="#9a3412" stroke-linecap="round" stroke-width="8" d="M136 126c13 14 36 14 49 0"/>
</svg>
