<svg xmlns="http://www.w3.org/2000/svg" viewBox="0 0 320 320" role="img" aria-labelledby="title desc">
  <title id="title">Type 9 The Peacemaker character</title>
  <desc id="desc">Mint nature mediator with leaf motifs and calm aura.</desc>
  <defs><linearGradient id="g" x1="42" x2="278" y1="22" y2="298" gradientUnits="userSpaceOnUse"><stop stop-color="#dcfce7"/><stop offset="1" stop-color="#10b981"/></linearGradient></defs>
  <circle cx="160" cy="160" r="132" fill="url(#g)" opacity=".36"/>
  <path fill="#f0fdf4" d="M88 235c14-55 42-85 72-85s58 30 72 85c-40 30-104 30-144 0Z"/>
  <circle cx="160" cy="112" r="45" fill="#f1ceb8"/>
  <path fill="#166534" d="M114 109c7-38 40-58 76-38 17 10 25 30 20 54-28-19-62-22-96-16Z"/>
  <path fill="#10b981" d="M108 228h104l-18 49h-68l-18-49Z"/>
  <path fill="#86efac" stroke="#047857" stroke-width="5" d="M242 88c41 2 47 46 7 64-8-21-7-44-7-64Z"/>
  <path fill="#bbf7d0" stroke="#047857" stroke-width="5" d="M72 126c40-12 58 30 25 58-15-17-22-37-25-58Z"/>
  <path stroke="#14532d" stroke-linecap="round" stroke-width="8" d="M137 127c13 13 35 13 48 0"/>
</svg>
