<svg xmlns="http://www.w3.org/2000/svg" viewBox="0 0 320 320" role="img" aria-labelledby="title desc">
  <title id="title">Type 2 The Helper character</title>
  <desc id="desc">Warm rose healer offering a glowing cup.</desc>
  <defs><linearGradient id="g" x1="44" x2="276" y1="24" y2="296" gradientUnits="userSpaceOnUse"><stop stop-color="#fce7f3"/><stop offset="1" stop-color="#ec4899"/></linearGradient></defs>
  <circle cx="160" cy="160" r="132" fill="url(#g)" opacity=".34"/>
  <path fill="#fff1f2" d="M86 234c12-58 40-86 74-86s62 28 74 86c-38 30-110 30-148 0Z"/>
  <circle cx="160" cy="112" r="45" fill="#f5cdbd"/>
  <path fill="#be185d" d="M115 101c8-36 42-58 80-30 13 10 18 27 14 50-30-24-62-18-94-20Z"/>
  <path fill="#ec4899" d="M110 228h100l-12 48h-76l-12-48Z"/>
  <path fill="#fb7185" d="M246 106c18-20 52 2 31 28l-31 36-31-36c-20-26 13-48 31-28Z"/>
  <path fill="#fff7ed" stroke="#ec4899" stroke-width="6" d="M121 184h78a28 28 0 0 1-28 28h-22a28 28 0 0 1-28-28Z"/>
  <path fill="none" stroke="#9d174d" stroke-linecap="round" stroke-width="8" d="M139 126c10 10 32 10 42 0"/>
</svg>
